<svg width="900" height="700" xmlns="http://www.w3.org/2000/svg">
  <rect width="900" height="700" fill="white" stroke="black" stroke-width="2"/>
  <text x="450" y="30" text-anchor="middle" font-size="20" font-weight="bold">Äänestyssovelluksen käyttötapauskaavio</text>
  <ellipse cx="100" cy="150" rx="70" ry="40" fill="none" stroke="black" stroke-width="2"/>
  <line x1="100" y1="130" x2="100" y2="110" stroke="black" stroke-width="2"/>
  <circle cx="100" cy="105" r="8" fill="none" stroke="black" stroke-width="2"/>
  <line x1="85" y1="145" x2="115" y2="155" stroke="black" stroke-width="2"/>
  <line x1="115" y1="145" x2="85" y2="155" stroke="black" stroke-width="2"/>
  <line x1="100" y1="170" x2="85" y2="200" stroke="black" stroke-width="2"/>
  <line x1="100" y1="170" x2="115" y2="200" stroke="black" stroke-width="2"/>
  <text x="100" y="220" text-anchor="middle" font-size="14" font-weight="bold">Käyttäjä</text>
  <ellipse cx="100" cy="400" rx="70" ry="40" fill="none" stroke="black" stroke-width="2"/>
  <line x1="100" y1="380" x2="100" y2="360" stroke="black" stroke-width="2"/>
  <circle cx="100" cy="355" r="8" fill="none" stroke="black" stroke-width="2"/>
  <line x1="85" y1="395" x2="115" y2="405" stroke="black" stroke-width="2"/>
  <line x1="115" y1="395" x2="85" y2="405" stroke="black" stroke-width="2"/>
  <line x1="100" y1="420" x2="85" y2="450" stroke="black" stroke-width="2"/>
  <line x1="100" y1="420" x2="115" y2="450" stroke="black" stroke-width="2"/>
  <text x="100" y="470" text-anchor="middle" font-size="14" font-weight="bold">Ylläpitäjä</text>
  <rect x="250" y="80" width="550" height="500" fill="none" stroke="black" stroke-width="3"/>
  <text x="525" y="105" text-anchor="middle" font-size="16" font-weight="bold">Äänestyssovellus</text>
  <ellipse cx="400" cy="150" rx="100" ry="30" fill="none" stroke="black" stroke-width="2"/>
  <text x="400" y="155" text-anchor="middle" font-size="12">Selaa äänestyksiä</text>
  <ellipse cx="400" cy="220" rx="110" ry="30" fill="none" stroke="black" stroke-width="2"/>
  <text x="400" y="225" text-anchor="middle" font-size="12">Katso äänestystilanne</text>
  <ellipse cx="400" cy="290" rx="80" ry="30" fill="none" stroke="black" stroke-width="2"/>
  <text x="400" y="295" text-anchor="middle" font-size="12">Äänestä</text>
  <ellipse cx="650" cy="350" rx="100" ry="30" fill="none" stroke="black" stroke-width="2"/>
  <text x="650" y="355" text-anchor="middle" font-size="12">Luo uusi äänestys</text>
  <ellipse cx="650" cy="450" rx="90" ry="30" fill="none" stroke="black" stroke-width="2"/>
  <text x="650" y="455" text-anchor="middle" font-size="12">Poista äänestys</text>
  <line x1="170" y1="150" x2="300" y2="150" stroke="black" stroke-width="2"/>
  <line x1="170" y1="160" x2="290" y2="220" stroke="black" stroke-width="2"/>
  <line x1="170" y1="170" x2="320" y2="290" stroke="black" stroke-width="2"/>
  <line x1="170" y1="380" x2="550" y2="350" stroke="black" stroke-width="2"/>
  <line x1="170" y1="420" x2="560" y2="450" stroke="black" stroke-width="2"/>
  <polygon points="90,340 110,340 100,360" fill="white" stroke="black" stroke-width="2"/>
</svg>
